<?xml version="1.0" standalone="no"?>
<!DOCTYPE svg PUBLIC "-//W3C//DTD SVG 20010904//EN"
 "http://www.w3.org/TR/2001/REC-SVG-20010904/DTD/svg10.dtd">
<svg version="1.0" xmlns="http://www.w3.org/2000/svg"
 width="217.000000pt" height="150.000000pt" viewBox="0 0 217.000000 150.000000"
 preserveAspectRatio="xMidYMid meet">

<g transform="translate(0.000000,150.000000) scale(0.100000,-0.100000)"
fill="#000000" stroke="none">
<path d="M910 905 l0 -185 40 0 40 0 0 75 0 75 43 2 c23 1 57 2 76 2 l34 0 -2
-77 -2 -77 45 0 46 0 0 180 0 180 -45 0 -45 0 0 -75 0 -75 -75 0 -75 0 0 74
c0 68 -2 74 -22 80 -60 16 -58 23 -58 -179z"/>
<path d="M1290 905 l0 -185 40 0 40 0 0 64 c0 36 4 68 10 71 18 11 48 -15 79
-70 35 -62 43 -68 94 -63 l36 3 -44 70 c-45 70 -54 95 -35 95 16 0 50 62 50
92 0 37 -44 85 -88 98 -20 5 -70 10 -109 10 l-73 0 0 -185z m170 105 c11 -11
20 -29 20 -40 0 -29 -36 -60 -70 -60 l-30 0 0 60 0 60 30 0 c17 0 39 -9 50
-20z"/>
<path d="M608 977 c-119 -50 -215 -93 -213 -95 2 -3 46 -19 97 -36 l93 -31 30
-92 c17 -51 33 -94 36 -97 3 -3 44 87 92 202 105 254 101 242 91 241 -5 -1
-107 -42 -226 -92z"/>
</g>
</svg>
